<svg width="23" height="40" viewBox="0 0 23 40" fill="none" xmlns="http://www.w3.org/2000/svg">
<path opacity="0.984" fill-rule="evenodd" clip-rule="evenodd" d="M2.1943 0C2.61094 0 3.02766 0 3.4443 0C3.84868 0.150116 4.2393 0.345428 4.61618 0.585938C10.4886 6.45834 16.3609 12.3307 22.2334 18.2031C23.0146 19.401 23.0146 20.599 22.2334 21.7969C16.3609 27.6693 10.4886 33.5416 4.61618 39.4141C4.2393 39.6546 3.84868 39.8499 3.4443 40C3.02766 40 2.61094 40 2.1943 40C0.550787 39.4495 -0.165307 38.3038 0.0458658 36.5625C0.132975 36.2321 0.263131 35.9196 0.43649 35.625C5.59165 30.4047 10.7609 25.1964 15.9443 20C10.7609 14.8036 5.59165 9.59531 0.43649 4.375C-0.316557 2.91138 -0.0952278 1.62232 1.10055 0.507812C1.44251 0.27147 1.80712 0.102198 2.1943 0Z" fill="#0D1821"/>
</svg>
