<svg width="23" height="40" viewBox="0 0 23 40" fill="none" xmlns="http://www.w3.org/2000/svg">
<path opacity="0.984" fill-rule="evenodd" clip-rule="evenodd" d="M20.625 40C20.2084 40 19.7916 40 19.375 40C18.9706 39.8499 18.58 39.6546 18.2031 39.4141C12.3307 33.5417 6.45836 27.6693 0.585939 21.7969C-0.195311 20.599 -0.195311 19.401 0.585939 18.2031C6.45836 12.3307 12.3307 6.45836 18.2031 0.585938C18.58 0.345391 18.9706 0.150078 19.375 0C19.7916 0 20.2084 0 20.625 0C22.2685 0.550469 22.9846 1.69625 22.7734 3.4375C22.6863 3.76789 22.5562 4.08039 22.3828 4.375C17.2277 9.59531 12.0584 14.8036 6.875 20C12.0584 25.1964 17.2277 30.4047 22.3828 35.625C23.1359 37.0886 22.9145 38.3777 21.7188 39.4922C21.3768 39.7285 21.0122 39.8978 20.625 40Z" fill="#FFFAE3"/>
</svg>
