<svg xmlns="http://www.w3.org/2000/svg" xmlns:se="http://svg-edit.googlecode.com" xmlns:xlink="http://www.w3.org/1999/xlink" xmlns:dc="http://purl.org/dc/elements/1.1/" xmlns:cc="http://creativecommons.org/ns#" xmlns:rdf="http://www.w3.org/1999/02/22-rdf-syntax-ns#" xmlns:inkscape="http://www.inkscape.org/namespaces/inkscape" width="777" height="480">                                    <title>my vector image</title>                                    <!-- Created with Vector Paint - http://www.vectorpaint.yaks.com/ https://chrome.google.com/webstore/detail/hnbpdiengicdefcjecjbnjnoifekhgdo -->                                    <rect id="backgroundrect" width="100%" height="100%" x="0" y="0" fill="#FFFFFF" stroke="none"/>                                <g class="currentLayer" style=""><title>Layer 1</title><polyline fill="none" stroke="#222222" stroke-width="14" stroke-linejoin="round" stroke-dashoffset="" fill-rule="nonzero" marker-start="" marker-mid="" marker-end="" id="svg_1" points="68.51505003189243,364.0273715103521 68.51505003189243,364.0273715103521 68.68628290413078,364.0273715103521 69.02874864860746,364.0273715103521 69.37121439308416,364.0273715103521 69.88491300979919,364.0273715103521 70.22737875427589,363.85613863811375 70.74107737099092,363.85613863811375 71.76847460442099,363.68490576587544 72.28217322113603,363.68490576587544 73.3095704545661,363.17120714916035 73.82326907128115,362.999974276922 74.67943343247288,362.8287414046836 75.53559779366459,362.31504278796865 76.04929641037964,361.972577043492 77.24792651604804,361.28764555453864 78.10409087723977,360.4314811933468 78.9602552384315,359.74654970439354 80.8438168330533,358.54791959872506 82.55614555543676,357.3492894930566 83.41230991662849,356.6643580041033 85.12463863901193,355.46572789843475 86.32326874468035,354.6095635372431 88.3780632115405,353.068467687098 90.94655629511567,351.8698375814295 92.1451864007841,351.35613896471455 94.54244661212094,350.1575088590461 97.11093969569612,349.4725773700927 98.65203554584123,349.3013444978544 99.6794327792713,349.13011162561605 100.19313139598636,349.13011162561605 101.04929575717806,349.13011162561605 103.78902171299158,348.616413008901 107.89861064671187,348.44518013666266 110.80956947476375,348.102714392186 117.48765149205921,347.9314815199476 123.65203489263966,347.9314815199476 125.70682935949979,348.102714392186 127.07669233740656,348.102714392186 129.1314868042667,348.616413008901 136.83696605499225,350.67120747576115 145.05614392243282,353.92463204828977 153.44655466211174,358.03422098201 156.18628061792526,359.5753168321552 158.0698422125471,360.77394693782355 158.58354082926212,360.9451798100619 160.8095681683606,361.458878426777 164.5766913576042,362.6575085324454 169.37121178027786,364.54107012706714 171.76847199161472,365.0547687437822 173.65203358623654,365.7397002327356 173.9944993307132,365.7397002327356 175.19312943638164,365.7397002327356 178.78901975338684,365.0547687437822 181.52874570920036,364.7123029993055 186.4944990041124,364.1986043825905 190.43285506559437,363.68490576587544 191.97395091573947,363.3424400213987 192.3164166602161,363.17120714916035 192.6588824046929,362.999974276922 194.54244399931463,362.31504278796865 195.56984123274478,361.63011129901525 197.96710144408158,360.2602483211085 198.8232658052733,359.74654970439354 200.19312878318004,359.0616182154401 200.87806027213347,358.54791959872506 201.39175888884847,358.2054538542484 201.9054575055635,358.03422098201 201.9054575055635,357.86298810977166 202.07669037780187,357.86298810977166 202.07669037780187,357.86298810977166 " style="color: rgb(0, 0, 0);"/><polyline fill="none" stroke="#222222" stroke-width="14" stroke-linejoin="round" stroke-dashoffset="" fill-rule="nonzero" marker-start="" marker-mid="" marker-end="" id="svg_2" points="106.8712134132818,360.08901544887016 107.21367915775849,360.08901544887016 107.55614490223519,360.08901544887016 108.41230926342692,360.08901544887016 109.95340511357202,360.08901544887016 110.98080234700208,360.08901544887016 113.03559681386224,360.08901544887016 113.72052830281561,360.08901544887016 116.2890213863908,359.9177825766318 117.31641861982088,359.5753168321552 120.74107606458779,358.89038534320173 122.11093904249455,358.54791959872506 125.36436361502311,357.52052236529494 127.5903909541216,356.8355908763416 131.3575141433652,355.97942651514995 133.5835414824637,355.12326215395814 137.5218975439456,354.09586492052813 140.09039062752083,353.4109334315747 141.46025360542757,352.89723481485964 142.48765083885763,352.72600194262134 147.11093838929298,352.554769070383 153.27532178987343,352.554769070383 159.09723944597715,352.89723481485964 162.6931297629824,353.4109334315747 165.09038997431924,353.92463204828977 168.6862802913245,354.78079640948147 170.74107475818465,355.46572789843475 171.42600624713805,355.46572789843475 172.62463635280642,355.6369607706731 176.73422528652674,356.49312513186493 179.9876498590553,357.86298810977166 187.00819762082742,360.9451798100619 191.97395091573947,362.999974276922 193.1725810214079,362.8287414046836 195.0561426160297,362.8287414046836 197.28216995512815,362.486275660207 203.44655335570863,362.31504278796865 205.50134782256873,362.31504278796865 208.06984090614392,361.63011129901525 208.92600526733568,361.63011129901525 209.61093675628905,361.458878426777 209.95340250076572,361.458878426777 210.6383339897191,361.28764555453864 211.83696409538754,360.9451798100619 214.4054571789627,360.08901544887016 222.96710079088,357.52052236529494 232.72737450846572,354.9520292817198 237.35066205890098,353.92463204828977 242.6588810982897,352.0410704536679 246.25477141529495,349.98627598680775 247.1109357764867,349.3013444978544 " style="color: rgb(0, 0, 0);"/><path fill="none" fill-opacity="1" stroke="#222222" stroke-opacity="1" stroke-width="14" stroke-dasharray="none" stroke-linejoin="round" stroke-linecap="butt" stroke-dashoffset="" fill-rule="nonzero" opacity="1" marker-start="" marker-mid="" marker-end="" d="M83,360 C83,358.89502762430936 83.89502762430939,358 85,358 C86.10497237569061,358 87,358.89502762430936 87,360 C87,361.10497237569064 86.10497237569061,362 85,362 C83.89502762430939,362 83,361.10497237569064 83,360 Z" id="svg_3"/><path fill="none" fill-opacity="1" stroke="#222222" stroke-opacity="1" stroke-width="14" stroke-dasharray="none" stroke-linejoin="round" stroke-linecap="butt" stroke-dashoffset="" fill-rule="nonzero" opacity="1" marker-start="" marker-mid="" marker-end="" d="M92,355 C92,353.89502762430936 92.89502762430939,353 94,353 C95.10497237569061,353 96,353.89502762430936 96,355 C96,356.10497237569064 95.10497237569061,357 94,357 C92.89502762430939,357 92,356.10497237569064 92,355 Z" id="svg_5"/><path fill="none" fill-opacity="1" stroke="#222222" stroke-opacity="1" stroke-width="14" stroke-dasharray="none" stroke-linejoin="round" stroke-linecap="butt" stroke-dashoffset="" fill-rule="nonzero" opacity="1" marker-start="" marker-mid="" marker-end="" d="M100,352.5 C100,351.67127071823205 100.89502762430939,351 102,351 C103.10497237569061,351 104,351.67127071823205 104,352.5 C104,353.32872928176795 103.10497237569061,354 102,354 C100.89502762430939,354 100,353.32872928176795 100,352.5 Z" id="svg_7"/><path fill="none" fill-opacity="1" stroke="#222222" stroke-opacity="1" stroke-width="14" stroke-dasharray="none" stroke-linejoin="round" stroke-linecap="butt" stroke-dashoffset="" fill-rule="nonzero" opacity="1" marker-start="" marker-mid="" marker-end="" d="M109,351.5 C109,350.67127071823205 109.89502762430939,350 111,350 C112.10497237569061,350 113,350.67127071823205 113,351.5 C113,352.32872928176795 112.10497237569061,353 111,353 C109.89502762430939,353 109,352.32872928176795 109,351.5 Z" id="svg_9"/><path fill="none" fill-opacity="1" stroke="#222222" stroke-opacity="1" stroke-width="14" stroke-dasharray="none" stroke-linejoin="round" stroke-linecap="butt" stroke-dashoffset="" fill-rule="nonzero" opacity="1" marker-start="" marker-mid="" marker-end="" d="M118,351 C118,350.4475138121547 118.4475138121547,350 119,350 C119.5524861878453,350 120,350.4475138121547 120,351 C120,351.5524861878453 119.5524861878453,352 119,352 C118.4475138121547,352 118,351.5524861878453 118,351 Z" id="svg_11"/><path fill="none" fill-opacity="1" stroke="#222222" stroke-opacity="1" stroke-width="14" stroke-dasharray="none" stroke-linejoin="round" stroke-linecap="butt" stroke-dashoffset="" fill-rule="nonzero" opacity="1" marker-start="" marker-mid="" marker-end="" d="M140,357 C140,355.89502762430936 140.8950276243094,355 142,355 C143.1049723756906,355 144,355.89502762430936 144,357 C144,358.10497237569064 143.1049723756906,359 142,359 C140.8950276243094,359 140,358.10497237569064 140,357 Z" id="svg_13"/><path fill="none" fill-opacity="1" stroke="#222222" stroke-opacity="1" stroke-width="14" stroke-dasharray="none" stroke-linejoin="round" stroke-linecap="butt" stroke-dashoffset="" fill-rule="nonzero" opacity="1" marker-start="" marker-mid="" marker-end="" d="M146,360.5 C146,359.67127071823205 146.44751381215468,359 147,359 C147.55248618784532,359 148,359.67127071823205 148,360.5 C148,361.32872928176795 147.55248618784532,362 147,362 C146.44751381215468,362 146,361.32872928176795 146,360.5 Z" id="svg_15"/><path fill="none" fill-opacity="1" stroke="#222222" stroke-opacity="1" stroke-width="14" stroke-dasharray="none" stroke-linejoin="round" stroke-linecap="butt" stroke-dashoffset="" fill-rule="nonzero" opacity="1" marker-start="" marker-mid="" marker-end="" d="M151,363 C151,362.4475138121547 151.67127071823205,362 152.5,362 C153.32872928176795,362 154,362.4475138121547 154,363 C154,363.5524861878453 153.32872928176795,364 152.5,364 C151.67127071823205,364 151,363.5524861878453 151,363 Z" id="svg_17"/><path fill="none" fill-opacity="1" stroke="#222222" stroke-opacity="1" stroke-width="14" stroke-dasharray="none" stroke-linejoin="round" stroke-linecap="butt" stroke-dashoffset="" fill-rule="nonzero" opacity="1" marker-start="" marker-mid="" marker-end="" d="M157,364.5 C157,363.67127071823205 157.67127071823205,363 158.5,363 C159.32872928176795,363 160,363.67127071823205 160,364.5 C160,365.32872928176795 159.32872928176795,366 158.5,366 C157.67127071823205,366 157,365.32872928176795 157,364.5 Z" id="svg_19"/><path fill="none" fill-opacity="1" stroke="#222222" stroke-opacity="1" stroke-width="14" stroke-dasharray="none" stroke-linejoin="round" stroke-linecap="butt" stroke-dashoffset="" fill-rule="nonzero" opacity="1" marker-start="" marker-mid="" marker-end="" d="M192,357.5 C192,356.67127071823205 192.67127071823205,356 193.5,356 C194.32872928176795,356 195,356.67127071823205 195,357.5 C195,358.32872928176795 194.32872928176795,359 193.5,359 C192.67127071823205,359 192,358.32872928176795 192,357.5 Z" id="svg_21"/><path fill="none" fill-opacity="1" stroke="#222222" stroke-opacity="1" stroke-width="14" stroke-dasharray="none" stroke-linejoin="round" stroke-linecap="butt" stroke-dashoffset="" fill-rule="nonzero" opacity="1" marker-start="" marker-mid="" marker-end="" d="M197,355 C197,354.4475138121547 197.44751381215468,354 198,354 C198.55248618784532,354 199,354.4475138121547 199,355 C199,355.5524861878453 198.55248618784532,356 198,356 C197.44751381215468,356 197,355.5524861878453 197,355 Z" id="svg_23"/><path fill="none" fill-opacity="1" stroke="#222222" stroke-opacity="1" stroke-width="14" stroke-dasharray="none" stroke-linejoin="round" stroke-linecap="butt" stroke-dashoffset="" fill-rule="nonzero" opacity="1" marker-start="" marker-mid="" marker-end="" d="M201,354.5 C201,353.67127071823205 201.67127071823205,353 202.5,353 C203.32872928176795,353 204,353.67127071823205 204,354.5 C204,355.32872928176795 203.32872928176795,356 202.5,356 C201.67127071823205,356 201,355.32872928176795 201,354.5 Z" id="svg_25"/><path fill="none" fill-opacity="1" stroke="#222222" stroke-opacity="1" stroke-width="14" stroke-dasharray="none" stroke-linejoin="round" stroke-linecap="butt" stroke-dashoffset="" fill-rule="nonzero" opacity="1" marker-start="" marker-mid="" marker-end="" d="M207,356 C207,355.4475138121547 207.44751381215468,355 208,355 C208.55248618784532,355 209,355.4475138121547 209,356 C209,356.5524861878453 208.55248618784532,357 208,357 C207.44751381215468,357 207,356.5524861878453 207,356 Z" id="svg_27"/><path fill="none" fill-opacity="1" stroke="#222222" stroke-opacity="1" stroke-width="14" stroke-dasharray="none" stroke-linejoin="round" stroke-linecap="butt" stroke-dashoffset="" fill-rule="nonzero" opacity="1" marker-start="" marker-mid="" marker-end="" d="M219,360 C219,359.4475138121547 219.44751381215468,359 220,359 C220.55248618784532,359 221,359.4475138121547 221,360 C221,360.5524861878453 220.55248618784532,361 220,361 C219.44751381215468,361 219,360.5524861878453 219,360 Z" id="svg_29"/><path fill="none" fill-opacity="1" stroke="#222222" stroke-opacity="1" stroke-width="14" stroke-dasharray="none" stroke-linejoin="round" stroke-linecap="butt" stroke-dashoffset="" fill-rule="nonzero" opacity="1" marker-start="" marker-mid="" marker-end="" d="M224,360 C224,359.4475138121547 224.44751381215468,359 225,359 C225.55248618784532,359 226,359.4475138121547 226,360 C226,360.5524861878453 225.55248618784532,361 225,361 C224.44751381215468,361 224,360.5524861878453 224,360 Z" id="svg_31"/><path fill="none" fill-opacity="1" stroke="#222222" stroke-opacity="1" stroke-width="14" stroke-dasharray="none" stroke-linejoin="round" stroke-linecap="butt" stroke-dashoffset="" fill-rule="nonzero" opacity="1" marker-start="" marker-mid="" marker-end="" d="M228,359 C228,358.4475138121547 228.44751381215468,358 229,358 C229.55248618784532,358 230,358.4475138121547 230,359 C230,359.5524861878453 229.55248618784532,360 229,360 C228.44751381215468,360 228,359.5524861878453 228,359 Z" id="svg_33"/><path fill="none" fill-opacity="1" stroke="#222222" stroke-opacity="1" stroke-width="14" stroke-dasharray="none" stroke-linejoin="round" stroke-linecap="butt" stroke-dashoffset="" fill-rule="nonzero" opacity="1" marker-start="" marker-mid="" marker-end="" d="M233,357.5 C233,356.67127071823205 233.67127071823205,356 234.5,356 C235.32872928176795,356 236,356.67127071823205 236,357.5 C236,358.32872928176795 235.32872928176795,359 234.5,359 C233.67127071823205,359 233,358.32872928176795 233,357.5 Z" id="svg_35"/><path fill="none" fill-opacity="1" stroke="#222222" stroke-opacity="1" stroke-width="14" stroke-dasharray="none" stroke-linejoin="round" stroke-linecap="butt" stroke-dashoffset="" fill-rule="nonzero" opacity="1" marker-start="" marker-mid="" marker-end="" d="M238,356 C238,355.4475138121547 238.44751381215468,355 239,355 C239.55248618784532,355 240,355.4475138121547 240,356 C240,356.5524861878453 239.55248618784532,357 239,357 C238.44751381215468,357 238,356.5524861878453 238,356 Z" id="svg_37"/></g></svg>