<svg width="100" height="50" xmlns="http://www.w3.org/2000/svg">
 <!-- Created with Method Draw - http://github.com/duopixel/Method-Draw/ -->
 <g>
  <title>background</title>
  <rect fill="#fff" id="canvas_background" height="52" width="102" y="-1" x="-1"/>
 </g>
 <g>
  <title>Layer 1</title>
  <path d="m2.10001,46.92c0,-1 0,-2 0,-2c0,-2 0,-2 0,-3c0,-1 0.29289,-1.29289 1,-2c0.70711,-0.70711 1.07612,-0.61732 2,-1c1.30656,-0.54119 1,-1 1,-1c1,0 2,-1 2,-1c1,0 1.82375,-1.48626 4,-2c0.97325,-0.22975 3,0 3,0c2,0 3,-1 4,-1c1,0 3,0 3,0c2,0 2,-1 3,-1c1,0 2,0 4,0c2,0 2,0 4,0c0,0 1,0 1,0c1,0 2.07612,-0.61732 3,-1c1.30656,-0.5412 5.07612,-0.61732 6,-1c1.30656,-0.5412 3,-1 4,-1c1,0 2,0 3,0c1,0 3,0 4,0c1,0 2,0 3,0c1,0 1,0 2,0c1,0 2,0 3,0c1,0 3,0 4,0c1,0 2,0 4,0c1,0 2,0 2,0c1,0 2,0 3,0c2,0 2,0 3,0c1,0 0.69344,-0.4588 2,-1c0.92388,-0.38268 2,0 4,0c2,0 2.82443,0.90211 4,-1c0.52573,-0.85065 2,-1 2,-1c0,-1 1,-2 1,-2c1,0 2,-1 2,-1c0,-1 1,-2 1,-3c0,-1 0,-2 0,-3c0,-2 0,-3 0,-4c0,-1 -0.4588,-1.69344 -1,-3c-0.38268,-0.92388 -0.58578,-0.58579 -2,-2c-0.70711,-0.70711 -0.4588,-0.69344 -1,-2c-0.38268,-0.92388 -2,-1 -2,-1c-1,0 -2.07612,0.38268 -3,0c-1.30656,-0.5412 -3,-1 -3,-1c-2,0 -3,0 -4,0c-1,0 -3,0 -4,0c-1,0 -1.69344,0.4588 -3,1c-0.92388,0.38268 -1.09789,0.82443 -3,2c-0.85065,0.52573 -1,0 -2,1c0,0 -1,2 -1,4c0,0 -0.61732,1.07612 -1,2c-0.54119,1.30656 -1,1 -1,2c0,1 0,1 0,2c0,1 1,1 2,1c0,0 -0.30656,1.4588 1,2c1.84776,0.76537 2,0 3,0c1,0 2,0 3,0c1,0 2,0 3,0c0,0 2,0 2,0c1,0 1.61732,-0.07612 2,-1c0.5412,-1.30656 1.4588,-0.69344 2,-2c0.38268,-0.92388 0,-1 0,-2c0,-1 0,-1 0,-2c0,0 0,-1 0,-2c0,0 -1,0 -2,0c0,0 0,-1 -1,-1c-1,0 -1,0 -2,0c-1,0 -1,0 -2,0c0,0 -1,0 -2,0c0,0 0,1 0,1c0,1 0,2 0,2l0,1l0,0" id="svg_1" stroke-width="1.5" stroke="#000" fill="none"/>
 </g>
</svg>